<?xml version="1.0" standalone="no"?><!DOCTYPE svg PUBLIC "-//W3C//DTD SVG 1.1//EN" "http://www.w3.org/Graphics/SVG/1.1/DTD/svg11.dtd"><svg t="1616670069529" class="icon" viewBox="0 0 1024 1024" version="1.1" xmlns="http://www.w3.org/2000/svg" p-id="6035" xmlns:xlink="http://www.w3.org/1999/xlink" width="128" height="128"><defs><style type="text/css"></style></defs><path d="M512 512m-447.9 0a447.9 447.9 0 1 0 895.8 0 447.9 447.9 0 1 0-895.8 0Z" fill="#00C785" p-id="6036"></path><path d="M741.6 567.5c0-63.7-63.7-115.5-135.3-115.5-75.9 0-135.5 51.9-135.5 115.5 0 63.8 59.6 115.5 135.5 115.5 15.9 0 31.9-4 47.8-7.9l43.7 24-12-39.8c32-24 55.8-56 55.8-91.8z m-179.3-19.9c-7.9 0-15.9-7.9-15.9-15.9 0-7.9 7.9-15.9 15.9-15.9 12 0 20 7.9 20 15.9s-8 15.9-20 15.9z m87.7 0c-7.9 0-15.8-7.9-15.8-15.9 0-7.9 7.9-15.9 15.8-15.9 12 0 19.9 7.9 19.9 15.9 0.1 8-8.1 15.9-19.9 15.9z m0 0" fill="#FFFFFF" p-id="6037"></path><path d="M593.1 437.9c5.2 0 10.5 0.4 15.7 0.9-14-65.6-84.1-114.2-164.1-114.2-89.4 0-162.7 60.9-162.7 138.3 0 44.7 24.3 81.4 65 109.9l-16.2 49 56.9-28.6c20.4 4 36.7 8.1 56.9 8.1 5 0 10.1-0.2 15.1-0.7-3.2-10.8-5-22.3-5-34.1 0.1-70.9 61.2-128.6 138.4-128.6z m-87.5-44.1c12.2 0 20.3 8.1 20.3 20.4 0 12.2-8.1 20.3-20.3 20.3-12.3 0-24.5-8.1-24.5-20.3 0.2-12.3 12.4-20.4 24.5-20.4z m-113.9 40.7c-12.3 0-24.5-8.1-24.5-20.3 0-12.3 12.2-20.4 24.5-20.4s20.4 8.1 20.4 20.4c0 12-8.1 20.3-20.4 20.3z m0 0" fill="#FFFFFF" p-id="6038"></path></svg>