<?xml version="1.0" standalone="no"?><!DOCTYPE svg PUBLIC "-//W3C//DTD SVG 1.1//EN" "http://www.w3.org/Graphics/SVG/1.1/DTD/svg11.dtd"><svg t="1621522676362" class="icon" viewBox="0 0 1024 1024" version="1.1" xmlns="http://www.w3.org/2000/svg" p-id="2114" xmlns:xlink="http://www.w3.org/1999/xlink" width="128" height="128"><defs><style type="text/css"></style></defs><path d="M473.254542 874.437114l208.448757-258.12242-35.223144-25.649674-208.448756 258.12242zM604.212383 372.281531l-35.042512-25.649674-208.448756 258.122421 35.042512 25.649673zM390.344682 733.54454l35.223143 25.649674L634.016581 501.071794l-35.223143-25.649674zM318.814606 259.025578l409.672252-0.722526 45.880403-162.568355c3.973893-14.269889 0.903158-29.081672-8.670313-41.003351-9.392838-11.560416-23.662727-18.243782-39.016405-18.243782l-409.491621 0.541894c-15.534309 0-29.804198 6.863997-39.197036 18.605045-9.392838 11.921679-12.463574 27.094726-7.947787 41.364615l48.770507 162.02646z m1.26442-171.780561l-2.890104-2.890104 2.890104 2.890104z m38.835774 120.661845l-35.94567-119.578056 398.653731-0.541895-33.778091 119.578056-328.92997 0.541895z m-41.906509-123.913212l0.180631 0.180631-0.180631-0.180631z" p-id="2115"></path><path d="M731.738225 277.991886l-418.161933-1.625684L186.05045 835.962604l319.898395 151.730464L837.94955 834.517552l-106.211325-556.525666z m-44.615981 50.938084l91.21891 477.950961-272.211678 122.829424-259.567472-120.119951 109.823955-481.563592 330.736285 0.903158z" p-id="2116"></path></svg>