<?xml version="1.0" standalone="no"?><!DOCTYPE svg PUBLIC "-//W3C//DTD SVG 1.1//EN" "http://www.w3.org/Graphics/SVG/1.1/DTD/svg11.dtd"><svg t="1622280659162" class="icon" viewBox="0 0 1024 1024" version="1.1" xmlns="http://www.w3.org/2000/svg" p-id="2385" xmlns:xlink="http://www.w3.org/1999/xlink" width="128" height="128"><defs><style type="text/css"></style></defs><path d="M512.5 792.5c-4.1 0-8.2-1.1-11.9-3.2l-448-256c-7.5-4.2-12.1-12.2-12.1-20.8 0-8.6 4.6-16.6 12.1-20.8l84-48c11.5-6.6 26.2-2.6 32.7 8.9 6.6 11.5 2.6 26.2-8.9 32.7l-47.5 27.2 399.6 228.4 399.6-228.4-47.6-27.2c-11.5-6.6-15.5-21.2-8.9-32.7s21.2-15.5 32.7-8.9l84 48c7.5 4.3 12.1 12.2 12.1 20.8 0 8.6-4.6 16.6-12.1 20.8l-448 256c-3.6 2.1-7.7 3.2-11.8 3.2z" fill="#7A7EF5" p-id="2386"></path><path d="M512.5 1000.5c-4.1 0-8.2-1.1-11.9-3.2l-448-256c-7.5-4.2-12.1-12.2-12.1-20.8 0-8.6 4.6-16.6 12.1-20.8l84-48c11.5-6.6 26.2-2.6 32.7 8.9 6.6 11.5 2.6 26.2-8.9 32.7l-47.5 27.2 399.6 228.4 399.6-228.4-47.6-27.2c-11.5-6.6-15.5-21.2-8.9-32.7 6.6-11.5 21.2-15.5 32.7-8.9l84.1 48c7.5 4.3 12.1 12.2 12.1 20.8 0 8.6-4.6 16.6-12.1 20.8l-448 256c-3.7 2.1-7.8 3.2-11.9 3.2z" fill="#7A7EF5" p-id="2387"></path><path d="M512.5 584.5c-4.1 0-8.2-1.1-11.9-3.2l-448-256c-7.5-4.2-12.1-12.2-12.1-20.8 0-8.6 4.6-16.6 12.1-20.8l448-256c7.4-4.2 16.4-4.2 23.8 0l448 256c7.5 4.3 12.1 12.2 12.1 20.8 0 8.6-4.6 16.6-12.1 20.8l-448 256c-3.7 2.1-7.8 3.2-11.9 3.2z m-399.6-280l399.6 228.4 399.6-228.4L512.5 76.1 112.9 304.5z" fill="#1037AC" p-id="2388"></path></svg>