<?xml version="1.0" standalone="no"?><!DOCTYPE svg PUBLIC "-//W3C//DTD SVG 1.1//EN" "http://www.w3.org/Graphics/SVG/1.1/DTD/svg11.dtd"><svg t="1623469693689" class="icon" viewBox="0 0 1024 1024" version="1.1" xmlns="http://www.w3.org/2000/svg" p-id="16675" xmlns:xlink="http://www.w3.org/1999/xlink" width="128" height="128"><defs><style type="text/css"></style></defs><path d="M773.9392 301.8752m-200.0384 0a200.0384 200.0384 0 1 0 400.0768 0 200.0384 200.0384 0 1 0-400.0768 0Z" fill="#40ECCB" p-id="16676"></path><path d="M924.4672 706.2528a24.32 24.32 0 0 1-24.2688 24.2688h-145.7664a24.3712 24.3712 0 0 0-24.2688 24.32 24.2688 24.2688 0 0 0 24.2688 24.2688h48.5888a24.32 24.32 0 0 1 24.2688 24.32 24.32 24.32 0 0 1-24.2688 24.2688h-64.512A388.7616 388.7616 0 0 1 122.88 390.4512h-48.5888a24.32 24.32 0 0 1 0-48.5888h97.28a24.2688 24.2688 0 0 0 6.8096-47.5648l0.768-0.9728H122.88a24.32 24.32 0 1 1 0-48.5888h101.632a388.7616 388.7616 0 0 1 619.52 437.248h56.32a24.32 24.32 0 0 1 24.1152 24.2688z" fill="#43CEED" p-id="16677"></path><path d="M294.5024 575.744c-15.36 38.0928-18.2784 74.0864-5.9392 80.5376 8.6016 4.8128 22.5792-5.888 35.4816-25.2416a106.1888 106.1888 0 0 0 35.4304 55.8592c-18.7904 6.9632-31.1808 18.7904-31.1808 31.6416 0 21.504 33.3312 39.2192 74.1376 39.2192 37.0176 0 67.6352-13.9776 73.5232-32.768h8.6016c5.9392 18.7904 36.5056 32.768 73.5744 32.768 41.3184 0 74.0864-17.2032 74.0864-39.2192 0-12.8512-12.3392-24.6784-31.1296-31.6416a106.1888 106.1888 0 0 0 35.4304-55.8592c12.9024 19.3536 26.3168 30.0544 35.4304 25.2416 12.9024-6.4512 10.24-42.9568-5.888-80.5376-12.3392-29.5424-28.9792-51.5584-41.8816-56.32 0-1.6384 0.512-3.7888 0.512-5.9392a58.368 58.368 0 0 0-8.5504-30.72v-2.1504a32.1024 32.1024 0 0 0-3.2256-14.5408C609.6896 389.12 560.2816 327.68 480.256 327.68S350.8736 389.12 347.648 466.176a32.1024 32.1024 0 0 0-3.2256 14.5408v2.1504a57.9584 57.9584 0 0 0-8.6016 30.72v5.9392c-11.776 4.6592-28.9792 26.1632-41.3184 56.2176z" fill="#FFFFFF" p-id="16678"></path></svg>