<?xml version="1.0" standalone="no"?><!DOCTYPE svg PUBLIC "-//W3C//DTD SVG 1.1//EN" "http://www.w3.org/Graphics/SVG/1.1/DTD/svg11.dtd"><svg t="1623486684490" class="icon" viewBox="0 0 1024 1024" version="1.1" xmlns="http://www.w3.org/2000/svg" p-id="5984" xmlns:xlink="http://www.w3.org/1999/xlink" width="128" height="128"><defs><style type="text/css"></style></defs><path d="M448 672H320v-98.55C428.51 557.89 512 464.82 512 352c0-123.71-100.29-224-224-224S64 228.29 64 352c0 112.82 83.49 205.89 192 221.45V672H128a32 32 0 0 0 0 64h128v128a32 32 0 0 0 64 0V736h128a32 32 0 0 0 0-64zM128 352c0-88.22 71.78-160 160-160s160 71.78 160 160-71.78 160-160 160-160-71.78-160-160zM768 450.54V237.25l81.14 81.14a32 32 0 0 0 45.25 0 32 32 0 0 0 0-45.25L758.63 137.37c-0.06-0.05-0.14-0.07-0.19-0.12a31.93 31.93 0 0 0-44.88 0c0 0.05-0.13 0.07-0.19 0.12L577.61 273.14a32 32 0 0 0 45.25 45.25L704 237.25v213.29C595.49 466.11 512 559.18 512 672c0 123.71 100.29 224 224 224s224-100.29 224-224c0-112.82-83.49-205.89-192-221.46zM736 832c-88.22 0-160-71.78-160-160s71.78-160 160-160 160 71.78 160 160-71.78 160-160 160z" p-id="5985"></path></svg>