<?xml version="1.0" standalone="no"?><!DOCTYPE svg PUBLIC "-//W3C//DTD SVG 1.1//EN" "http://www.w3.org/Graphics/SVG/1.1/DTD/svg11.dtd"><svg t="1623469769507" class="icon" viewBox="0 0 1024 1024" version="1.1" xmlns="http://www.w3.org/2000/svg" p-id="17020" xmlns:xlink="http://www.w3.org/1999/xlink" width="128" height="128"><defs><style type="text/css"></style></defs><path d="M696.545055 437.169231c0 144.035165-131.657143 260.501099-294.259341 260.501099-58.514286 0-113.652747-15.191209-159.226373-41.635165-12.940659-7.314286-108.589011 65.828571-119.841759 56.826373-16.316484-12.940659 52.325275-108.589011 39.384616-124.342857-34.320879-42.76044-54.575824-94.523077-54.575824-150.786813 0-144.035165 131.657143-260.501099 294.25934-260.501099s294.259341 116.465934 294.259341 259.938462z" fill="#42B983" p-id="17021" data-spm-anchor-id="a313x.7781069.0.i11" class="selected"></path><path d="M304.386813 335.331868m-32.070329 0a32.07033 32.07033 0 1 0 64.140659 0 32.07033 32.07033 0 1 0-64.140659 0Z" fill="#FCFCFC" p-id="17022"></path><path d="M915.410989 614.4c0 41.635165-12.940659 80.457143-35.446154 113.652747-8.43956 12.940659 46.698901 101.837363 35.446154 113.09011-12.378022 11.815385-105.775824-39.384615-120.967033-30.382417-42.197802 27.006593-79.331868 27.569231-135.595604 27.56923-141.784615 0-256.562637-100.149451-256.562638-223.92967s114.778022-223.92967 256.562638-223.92967 256.562637 100.712088 256.562637 223.92967z" fill="#28BEF9" p-id="17023"></path><path d="M560.949451 539.006593m-32.07033 0a32.07033 32.07033 0 1 0 64.140659 0 32.07033 32.07033 0 1 0-64.140659 0Z" fill="#FCFCFC" p-id="17024"></path><path d="M530.567033 335.331868m-32.07033 0a32.07033 32.07033 0 1 0 64.14066 0 32.07033 32.07033 0 1 0-64.14066 0Z" fill="#FCFCFC" p-id="17025"></path><path d="M749.432967 539.006593m-32.07033 0a32.07033 32.07033 0 1 0 64.14066 0 32.07033 32.07033 0 1 0-64.14066 0Z" fill="#FCFCFC" p-id="17026"></path></svg>