<?xml version="1.0" standalone="no"?><!DOCTYPE svg PUBLIC "-//W3C//DTD SVG 1.1//EN" "http://www.w3.org/Graphics/SVG/1.1/DTD/svg11.dtd"><svg t="1623469869094" class="icon" viewBox="0 0 1024 1024" version="1.1" xmlns="http://www.w3.org/2000/svg" p-id="21412" xmlns:xlink="http://www.w3.org/1999/xlink" width="128" height="128"><defs><style type="text/css"></style></defs><path d="M974.0288 302.08a200.0896 200.0896 0 0 1-334.7456 147.9168 204.2368 204.2368 0 0 1-25.1904-27.5968 200.0896 200.0896 0 1 1 359.936-120.32z" fill="#FFCC2D" p-id="21413"></path><path d="M501.1968 637.3888s-63.2832 77.2096-138.24 77.2096-90.368-36.6592-90.368-63.0272 15.36-55.04 79.0528-59.2384 149.5552 45.056 149.5552 45.056z" fill="#0085F9" p-id="21414" data-spm-anchor-id="a313x.7781069.0.i21" class="selected"></path><path d="M924.4672 706.2528a24.32 24.32 0 0 1-24.2688 24.2688h-21.1968L581.632 612.352a305.92 305.92 0 0 0 28.0576-60.0576c14.4384-39.7312 16.4864-61.696 16.4864-61.696l-114.176-0.9216V450.56l127.232-0.8704a204.2368 204.2368 0 0 1-25.1904-27.5968H512V359.424H444.2624v62.7712H315.3408v27.4944l128.9216-0.9216v41.8304h-103.424v21.9648h212.9408a205.5168 205.5168 0 0 1-10.24 39.7312c-8.1408 22.016-16.5888 41.3696-16.5888 41.3696s-100.1984-35.0208-153.1904-35.0208-116.736 21.1968-122.88 82.5344 29.8496 94.72 80.64 106.9568 97.5872 0 138.24-20.1216 80.8448-65.3824 80.8448-65.3824l179.2 89.4464a24.32 24.32 0 0 0 24.1152 27.0336h48.5888a24.32 24.32 0 0 1 24.064 21.1968 20.8896 20.8896 0 0 1 0 3.1232 24.32 24.32 0 0 1-24.2688 24.2688h-64.512A388.7616 388.7616 0 0 1 122.88 390.4512h-48.5888a24.32 24.32 0 0 1 0-48.5888h97.28a24.2688 24.2688 0 0 0 6.8096-47.5648l0.768-0.9728H122.88a24.32 24.32 0 1 1 0-48.5888h101.632a388.608 388.608 0 0 1 644.7104 233.1136 391.2704 391.2704 0 0 1 3.9424 55.6544 387.072 387.072 0 0 1-29.3376 148.48h56.32a24.32 24.32 0 0 1 24.32 24.2688z" fill="#0085F9" p-id="21415" data-spm-anchor-id="a313x.7781069.0.i18" class=""></path><path d="M614.0928 422.1952a204.2368 204.2368 0 0 0 25.1904 27.5968h11.008v-27.5968z" fill="#FFFFFF" p-id="21416"></path><path d="M581.632 612.352a305.92 305.92 0 0 0 28.0576-60.0576c14.4384-39.7312 16.4864-61.696 16.4864-61.696l-114.176-0.9216V450.56l127.232-0.8704a204.2368 204.2368 0 0 1-25.1904-27.5968H512V359.424H444.2624v62.7712H315.3408v27.4944l128.9216-0.9216v41.8304h-103.424v21.9648h212.9408a205.5168 205.5168 0 0 1-10.24 39.7312c-8.1408 22.016-16.5888 41.3696-16.5888 41.3696s-100.1984-35.0208-153.1904-35.0208-116.736 21.1968-122.88 82.5344 29.8496 94.72 80.64 106.9568 97.5872 0 138.24-20.1216 80.8448-65.3824 80.8448-65.3824l179.2 89.4464a23.6544 23.6544 0 0 1 6.9632-14.3872 23.9616 23.9616 0 0 1 17.152-7.168h124.5696z m-218.4704 102.4c-74.7008 0-90.368-36.6592-90.368-63.0272s15.36-55.04 79.0528-59.2384 149.3504 45.056 149.3504 45.056-63.2832 77.056-138.0352 77.056z" fill="#FFFFFF" p-id="21417"></path></svg>